<svg width="100" height="40" xmlns="http://www.w3.org/2000/svg">
    <g fill-rule="nonzero" fill="none">
        <path d="M0 0h100v40H0z"/>
        <path d="M0 27.724v-15.4a2.624 2.624 0 0 1 1.312-2.282l13.347-7.7c.399-.228.798-.342 1.255-.342.456 0 .912.114 1.311.342l13.347 7.7c.4.228.742.57.913.97.228.4.342.856.342 1.312v15.4c0 .456-.114.913-.342 1.312-.228.4-.57.741-.913.97l-13.347 7.642a2.624 2.624 0 0 1-2.623 0l-13.29-7.643A2.624 2.624 0 0 1 0 27.724Z" fill="#1563FF"/>
        <path d="M28.29 11.696 17.397 5.422c-.17-.114-.342-.114-.513-.114l-.513.114-.342.342-.057.457v6.046l5.703 3.25c.285.172.57.457.742.742.17.286.285.685.285 1.027v6.56l5.247 3.022.514.114.513-.114c.171-.057.285-.228.342-.342l.114-.513V13.465c0-.343-.114-.742-.285-1.027a2.132 2.132 0 0 0-.855-.742Z" fill="#DCE8FF"/>
        <path d="M9.24 22.705v-6.56l-5.247-3.023c-.171-.114-.343-.114-.514-.114l-.513.114-.342.343-.114.513v12.548c0 .342.114.742.285 1.027.171.285.456.57.741.741l10.895 6.274.456.115.456-.115c.171-.057.285-.228.342-.342.114-.17.114-.285.114-.456V27.78l-5.532-3.308c-.342-.171-.57-.456-.742-.742a2.282 2.282 0 0 1-.285-1.026Z" fill="#508AFF"/>
        <path d="M15.97 18.826v-6.56l-5.247-3.022c-.171-.114-.342-.114-.513-.114l-.514.114-.342.342-.114.513v6.046l5.647 3.251c.285.172.57.457.741.742.171.285.286.684.286 1.027v6.559l5.247 3.023c.171.114.342.114.513.114l.514-.114.342-.342.114-.514v-5.989l-5.647-3.25a2.053 2.053 0 0 1-1.026-1.826Z" fill="#96B9FF"/>
        <path d="m21.617 15.518-5.646-3.251v6.56c0 .341.114.74.285 1.026.17.285.456.57.741.741l5.704 3.251v-6.502c0-.342-.114-.741-.285-1.027a2.665 2.665 0 0 0-.799-.798Z" fill="#EFF5FF"/>
        <path d="m14.944 19.396-5.647-3.25v6.559c0 .342.114.741.285 1.026.171.286.457.57.742.742l5.647 3.25v-6.501c0-.343-.115-.742-.286-1.027a2.014 2.014 0 0 0-.741-.799Z" fill="#B0CAFF"/>
        <path d="M47.227 11.81c1.027 0 1.825.57 1.996 1.598h1.54c-.285-1.883-1.71-2.966-3.593-2.966-2.224 0-3.878 1.597-3.878 4.391 0 2.795 1.654 4.392 3.878 4.392 1.996 0 3.365-1.312 3.593-2.909h-1.54c-.17.97-1.026 1.54-1.996 1.54-1.369 0-2.338-1.026-2.338-2.966 0-1.996.97-3.08 2.338-3.08Zm8.442 7.358c2.224 0 3.878-1.597 3.878-4.392 0-2.794-1.654-4.391-3.878-4.391-2.225 0-3.879 1.597-3.879 4.391 0 2.795 1.654 4.392 3.879 4.392Zm0-7.358c1.369 0 2.338 1.027 2.338 2.966 0 1.94-.97 2.966-2.338 2.966-1.37 0-2.339-1.026-2.339-2.966 0-1.882.97-2.966 2.339-2.966Zm6.673 1.483 4.05 5.761h1.369v-8.498h-1.54v5.817h-.057l-3.993-5.817h-1.369v8.498h1.54v-5.76Zm13.29-2.737h-6.788v1.312h2.624v7.186h1.54v-7.186h2.624v-1.312Zm7.244 2.737c0-1.597-1.027-2.737-3.023-2.737h-3.194v8.498h1.54v-3.137h1.54l1.654 3.137h1.71L81.28 15.69c1.083-.4 1.597-1.255 1.597-2.396Zm-3.194 1.37h-1.426v-2.795h1.426c1.14 0 1.654.513 1.654 1.425 0 .913-.514 1.37-1.654 1.37Zm8.099-4.221c-2.225 0-3.879 1.597-3.879 4.391 0 2.738 1.654 4.392 3.879 4.392 2.224 0 3.878-1.597 3.878-4.392 0-2.794-1.654-4.391-3.878-4.391Zm0 7.357c-1.37 0-2.339-1.026-2.339-2.966 0-1.939.97-2.965 2.339-2.965s2.338 1.026 2.338 2.965c0 1.94-.97 2.966-2.338 2.966Zm6.56 0v-7.243H92.8v8.498h5.304v-1.312H94.34v.057Zm-47.627 3.137H43.52v8.5h1.54v-2.853h1.654c1.94 0 3.023-1.198 3.023-2.795 0-1.654-1.084-2.852-3.023-2.852Zm-.228 4.392H45.06v-3.08h1.426c1.14 0 1.654.628 1.654 1.54 0 .913-.514 1.54-1.654 1.54Zm5.875-4.392h-1.54v8.5h5.304v-1.313h-3.764v-7.187Zm7.586 0-2.966 8.5h1.654l.684-2.111h3.194l.685 2.11h1.654l-3.023-8.499h-1.882Zm-.229 5.19 1.141-3.421h.057l1.14 3.422h-2.338Zm11.465.628-4.05-5.818h-1.369v8.5h1.54v-5.762h.057l3.993 5.761h1.369v-8.499h-1.54v5.818Zm4.506-.912h3.707V24.53H75.69v-2.282h3.993v-1.312h-5.533v8.5h5.533v-1.313h-3.993v-2.281Z" fill="#000"/>
    </g>
</svg>
