<svg width="80" height="40" xmlns="http://www.w3.org/2000/svg">
    <g fill-rule="nonzero" fill="none">
        <path d="M0 0h80v40H0z"/>
        <path d="m47.042 12.803 3.709-3.709.247-1.561c-6.759-6.146-17.502-5.45-23.595 1.454-1.692 1.917-2.947 4.307-3.617 6.775l1.328-.187 7.418-1.223.573-.586c3.3-3.624 8.878-4.111 12.688-1.028l1.249.065Z" fill="#EA4335"/>
        <path d="M56.034 15.653a16.708 16.708 0 0 0-5.036-8.12l-5.205 5.205a9.253 9.253 0 0 1 3.396 7.34v.924a4.633 4.633 0 0 1 4.633 4.632c0 2.559-2.074 4.581-4.633 4.581h-9.278l-.911.989v5.557l.91.872h9.28c6.654.051 12.091-5.25 12.143-11.904a12.05 12.05 0 0 0-5.299-10.076" fill="#4285F4"/>
        <path d="M30.645 37.633h9.266v-7.418h-9.266c-.66 0-1.3-.142-1.9-.416l-1.314.403-3.735 3.709-.325 1.262c2.094 1.582 4.65 2.471 7.274 2.46" fill="#34A853"/>
        <path d="M30.645 13.57c-6.655.04-12.018 5.468-11.978 12.123a12.05 12.05 0 0 0 4.704 9.48l5.374-5.374a4.633 4.633 0 1 1 6.13-6.13l5.374-5.374a12.038 12.038 0 0 0-9.604-4.724" fill="#FBBC05"/>
    </g>
</svg>
