<svg width="80" height="40" xmlns="http://www.w3.org/2000/svg">
    <g fill="none" fill-rule="evenodd">
        <path d="M0 0h80v40H0z"/>
        <path d="M29.862 16.836c0 .576.062 1.043.171 1.386.125.342.28.716.498 1.121.078.125.11.25.11.358 0 .156-.094.312-.296.467l-.981.654a.747.747 0 0 1-.405.14c-.156 0-.312-.077-.468-.217a4.818 4.818 0 0 1-.56-.732c-.156-.265-.312-.561-.483-.92-1.215 1.434-2.74 2.15-4.578 2.15-1.308 0-2.352-.374-3.115-1.121-.763-.748-1.152-1.745-1.152-2.99 0-1.324.467-2.399 1.417-3.208.95-.81 2.211-1.215 3.815-1.215.53 0 1.075.047 1.65.125.577.077 1.169.202 1.792.342V12.04c0-1.183-.25-2.009-.732-2.491-.498-.483-1.34-.717-2.539-.717-.545 0-1.105.063-1.681.203-.577.14-1.137.311-1.682.53-.25.108-.436.17-.545.202a.955.955 0 0 1-.25.046c-.218 0-.327-.155-.327-.482v-.763c0-.25.032-.436.11-.545.077-.11.218-.219.436-.328.545-.28 1.199-.513 1.962-.7a9.441 9.441 0 0 1 2.43-.296c1.852 0 3.207.42 4.08 1.261.856.841 1.292 2.118 1.292 3.831v5.046h.03Zm-6.323 2.367c.514 0 1.044-.094 1.604-.28a3.47 3.47 0 0 0 1.48-.997c.249-.296.436-.623.53-.997a5.59 5.59 0 0 0 .155-1.355v-.654a13.005 13.005 0 0 0-1.433-.264 11.734 11.734 0 0 0-1.464-.094c-1.043 0-1.806.203-2.32.623-.514.42-.763 1.012-.763 1.79 0 .733.187 1.278.576 1.652.374.389.919.576 1.635.576Zm12.505 1.682c-.28 0-.467-.047-.591-.156-.125-.093-.234-.311-.328-.607l-3.66-12.038c-.093-.312-.14-.514-.14-.623 0-.25.125-.39.374-.39h1.527c.295 0 .498.047.607.156.125.094.218.312.311.608l2.617 10.309 2.429-10.31c.078-.31.171-.513.296-.607.124-.093.342-.155.623-.155h1.246c.296 0 .498.046.623.155.124.094.233.312.295.608l2.46 10.433 2.695-10.433c.093-.312.202-.514.312-.608.124-.093.327-.155.607-.155h1.448c.25 0 .39.124.39.389 0 .078-.016.156-.032.249a2.216 2.216 0 0 1-.109.39l-3.753 12.037c-.093.312-.202.514-.327.608-.124.093-.327.155-.592.155h-1.339c-.296 0-.498-.046-.623-.155-.124-.11-.233-.312-.296-.623l-2.413-10.045-2.399 10.029c-.078.312-.17.514-.296.623-.124.109-.342.156-.622.156h-1.34Zm20.011.42c-.81 0-1.62-.093-2.398-.28-.778-.187-1.386-.39-1.79-.623-.25-.14-.421-.296-.483-.436a1.1 1.1 0 0 1-.094-.436v-.794c0-.327.125-.483.358-.483.094 0 .187.015.28.047.094.03.234.093.39.155A8.47 8.47 0 0 0 54.03 19c.623.125 1.23.187 1.853.187.981 0 1.744-.171 2.274-.514.53-.342.81-.84.81-1.48 0-.435-.14-.793-.42-1.09-.281-.295-.81-.56-1.574-.809l-2.258-.7c-1.137-.359-1.978-.888-2.492-1.59-.513-.684-.778-1.447-.778-2.257 0-.654.14-1.23.42-1.729.28-.498.654-.934 1.122-1.277a4.943 4.943 0 0 1 1.62-.81 6.787 6.787 0 0 1 1.961-.264c.343 0 .701.015 1.044.062.358.047.685.109 1.012.171.311.078.607.156.888.25.28.093.498.186.654.28.218.124.373.249.467.39.093.124.14.295.14.513v.732c0 .327-.125.498-.358.498-.125 0-.327-.062-.592-.187-.888-.405-1.884-.607-2.99-.607-.888 0-1.588.14-2.071.436-.483.296-.732.748-.732 1.386 0 .436.156.81.467 1.106.312.296.888.591 1.713.856l2.211.701c1.122.358 1.932.856 2.414 1.495.483.638.717 1.37.717 2.18 0 .67-.14 1.277-.405 1.807-.28.53-.654.996-1.137 1.37-.483.39-1.059.67-1.729.872-.7.218-1.432.327-2.227.327Z" fill="#252F3E" fill-rule="nonzero"/>
        <g fill="#F90">
            <path d="M58.999 28.874c-5.124 3.784-12.568 5.793-18.968 5.793-8.97 0-17.052-3.317-23.157-8.83-.483-.436-.047-1.028.53-.685 6.602 3.83 14.747 6.15 23.172 6.15 5.684 0 11.929-1.183 17.675-3.612.857-.39 1.589.56.748 1.184Z"/>
            <path d="M61.132 26.444c-.654-.84-4.33-.405-5.995-.202-.499.062-.577-.374-.125-.701 2.928-2.056 7.74-1.464 8.3-.779.561.701-.155 5.513-2.896 7.818-.42.358-.826.171-.639-.296.623-1.542 2.01-5.014 1.355-5.84Z"/>
        </g>
    </g>
</svg>
