<svg width="80" height="40" xmlns="http://www.w3.org/2000/svg">
    <defs>
        <linearGradient x1="58.972%" y1="7.411%" x2="37.191%" y2="103.762%" id="a">
            <stop stop-color="#114A8B" offset="0%"/>
            <stop stop-color="#0669BC" offset="100%"/>
        </linearGradient>
        <linearGradient x1="59.719%" y1="52.313%" x2="52.691%" y2="54.864%" id="b">
            <stop stop-opacity=".3" offset="0%"/>
            <stop stop-opacity=".2" offset="7.1%"/>
            <stop stop-opacity=".1" offset="32.1%"/>
            <stop stop-opacity=".05" offset="62.3%"/>
            <stop stop-opacity="0" offset="100%"/>
        </linearGradient>
        <linearGradient x1="37.279%" y1="4.6%" x2="62.473%" y2="99.979%" id="c">
            <stop stop-color="#3CCBF4" offset="0%"/>
            <stop stop-color="#2892DF" offset="100%"/>
        </linearGradient>
    </defs>
    <g fill-rule="nonzero" fill="none">
        <path d="M0 0h80v40H0z"/>
        <path d="M14.152 0h12.562l-13.04 38.637A2.003 2.003 0 0 1 11.775 40H2a2 2 0 0 1-1.895-2.64l12.15-35.997A2.003 2.003 0 0 1 14.151 0Z" fill="url(#a)" transform="translate(19)"/>
        <path d="M51.406 25.915h-19.92a.922.922 0 0 0-.63 1.597l12.8 11.947c.373.347.864.54 1.373.54h11.28l-4.903-14.084Z" fill="#0078D4"/>
        <path d="M14.152 0c-.87-.003-1.64.56-1.902 1.39L.12 37.327A1.997 1.997 0 0 0 2.005 40h10.029a2.143 2.143 0 0 0 1.645-1.4l2.419-7.128 8.64 8.059c.362.3.816.465 1.286.469h11.237l-4.928-14.085-14.367.004L26.759 0H14.152Z" fill="url(#b)" transform="translate(19)"/>
        <path d="M30.196 1.36A2 2 0 0 0 28.301 0h-14a2 2 0 0 1 1.896 1.36l12.15 36A2 2 0 0 1 26.45 40h14a2 2 0 0 0 1.895-2.64l-12.15-36Z" fill="url(#c)" transform="translate(19)"/>
    </g>
</svg>
