<svg width="662" height="420" xmlns="http://www.w3.org/2000/svg">
    <defs>
        <linearGradient x1="50%" y1="0%" x2="50%" y2="100%" id="a">
            <stop stop-color="#E1EEFA" offset="0%"/>
            <stop stop-color="#FFF" offset="100%"/>
        </linearGradient>
        <linearGradient x1="41.018%" y1="0%" x2="41.018%" y2="100%" id="b">
            <stop stop-color="#F4FAFF" offset="0%"/>
            <stop stop-color="#B4D4EF" offset="100%"/>
        </linearGradient>
        <linearGradient x1="53.967%" y1="7.411%" x2="44.336%" y2="103.762%" id="c">
            <stop stop-color="#114A8B" offset="0%"/>
            <stop stop-color="#0669BC" offset="100%"/>
        </linearGradient>
        <linearGradient x1="54.294%" y1="52.313%" x2="51.189%" y2="54.864%" id="d">
            <stop stop-opacity=".3" offset="0%"/>
            <stop stop-opacity=".2" offset="7.1%"/>
            <stop stop-opacity=".1" offset="32.1%"/>
            <stop stop-opacity=".05" offset="62.3%"/>
            <stop stop-opacity="0" offset="100%"/>
        </linearGradient>
        <linearGradient x1="40.817%" y1="4.6%" x2="59.004%" y2="99.979%" id="e">
            <stop stop-color="#3CCBF4" offset="0%"/>
            <stop stop-color="#2892DF" offset="100%"/>
        </linearGradient>
    </defs>
    <g fill="none" fill-rule="evenodd">
        <path fill="#FFF" fill-rule="nonzero" d="M0 0h661.5v420H0z"/>
        <path d="m286.567 9.422 357.807 175.725c4.957 2.435 7.002 8.427 4.567 13.385a10 10 0 0 1-4.103 4.324L373.288 354.38a5 5 0 0 1-4.677.104L16.597 177.988c-4.937-2.476-6.933-8.484-4.457-13.422a10 10 0 0 1 3.941-4.179l261.08-150.65a10 10 0 0 1 9.406-.315Z" fill="url(#a)" fill-rule="nonzero" transform="translate(0 64.329)"/>
        <path d="M189.933 180.459a2.164 2.164 0 0 0-1.328-1.754 6.932 6.932 0 0 0-6.138 0 2.125 2.125 0 0 0-1.328 1.754v11.258a2.125 2.125 0 0 0 1.328 1.741c1.928.97 4.21.97 6.138 0 .73-.299 1.24-.966 1.328-1.74v-11.259Z" fill="#933CDD" fill-rule="nonzero"/>
        <path stroke="#933CDD" stroke-width="8" stroke-linecap="round" d="m185.536 191.502 310.56 148.645"/>
        <path d="M192.577 169.2a3.407 3.407 0 0 0-2.046-2.814 11.064 11.064 0 0 0-9.897 0 3.407 3.407 0 0 0-2.046 2.815v11.062c.007 1.31.8 2.49 2.02 3.01a11.145 11.145 0 0 0 9.897 0 3.298 3.298 0 0 0 2.019-3.01V169.2h.053Z" fill="#410F6C" fill-rule="nonzero"/>
        <g fill-rule="nonzero">
            <path d="m252.538 107.837-.389-.22-.246-.13-8.545-4.949v-.609c0-10.545-3.548-17.942-9.14-21.051l-16.509-9.548c-4.544-2.59-10.461-2.384-16.935 1.296a38.703 38.703 0 0 0-8.157 6.477 18.011 18.011 0 0 0-3.573-2.837l-15.951-9.185c-5.84-3.887-13.66-3.796-22.27 1.166-18.126 10.441-32.717 38.45-32.717 62.559a51.37 51.37 0 0 0 .608 7.98l-2.24 1.438c-11.497 6.646-20.819 24.459-20.819 39.797 0 8.472 2.849 14.51 7.328 17.1l16.702 9.652c3.639 2.085 8.325 1.917 13.453-1.05l30.257-17.566 80.65-46.573c6.887-3.99 12.48-14.678 12.48-23.889 0-4.754-1.514-8.2-3.987-9.858Z" fill="#3C80B6"/>
            <path d="m252.538 107.837-.389-.22-.246-.13-8.545-4.949v-.609c0-10.545-3.548-17.942-9.14-21.051l-16.509-9.548c-4.544-2.59-10.461-2.384-16.935 1.296a38.703 38.703 0 0 0-8.157 6.477 18.011 18.011 0 0 0-3.573-2.837l-15.951-9.185c-5.84-3.887-13.66-3.796-22.27 1.166-18.126 10.441-32.717 38.45-32.717 62.559a51.37 51.37 0 0 0 .608 7.98l-2.24 1.438c-11.497 6.646-20.819 24.459-20.819 39.797 0 8.472 2.849 14.51 7.328 17.1l16.702 9.652c3.639 2.085 8.325 1.917 13.453-1.05l30.257-17.566 80.65-46.573c6.887-3.99 12.48-14.678 12.48-23.889 0-4.754-1.514-8.2-3.987-9.858Z" fill="#FFF" opacity=".2"/>
            <path d="M234.217 80.878c-4.505-2.526-10.358-2.228-16.754 1.464a38.846 38.846 0 0 0-8.57 6.892l-15.136-8.81-1.49-.855.376-.375a39.117 39.117 0 0 1 8.157-6.478c6.474-3.744 12.39-3.977 16.935-1.295l16.482 9.457Z" fill="#FFF" opacity=".2"/>
            <path d="M192.63 79.194c.389.388.751.803 1.114 1.295l-1.489-.855.375-.44Z" fill="#FFF" opacity=".8"/>
            <path d="M188.656 76.123c-5.697-3.174-13.077-2.81-21.156 1.853-8.08 4.664-15.692 13.097-21.428 23.06l-16.65-9.6c5.748-9.975 13.232-18.331 21.428-23.073 8.61-4.961 16.43-5.039 22.269-1.166l15.537 8.926ZM135.377 148.528l-2.252 1.295c-7.769 4.496-14.592 14.147-18.127 24.615l-16.65-9.6a50.527 50.527 0 0 1 13.556-21.324l6.85-4.637 16.623 9.65Z" fill="#FFF" opacity=".2"/>
            <path d="m244.044 108.303-1.204.687c.334-2.339.503-4.698.505-7.06 0-19.083-11.588-27.853-25.895-19.588-6.629 3.886-12.688 10.661-17.271 18.784-.635-22.982-15.02-33.333-32.68-23.137-18.125 10.441-32.717 38.45-32.717 62.559-.01 2.671.19 5.34.595 7.98l-2.252 1.295c-11.498 6.646-20.82 24.46-20.82 39.798 0 15.338 9.322 22.722 20.82 16.077l30.27-17.541 80.65-46.573c6.887-3.99 12.48-14.678 12.48-23.889 0-9.146-5.593-13.369-12.48-9.392Z" fill="#FFF"/>
            <path d="m148.389 43.974-1.204.687c.334-2.339.502-4.698.505-7.06 0-19.083-11.588-27.854-25.895-19.588-6.629 3.886-12.688 10.661-17.271 18.784-.635-22.982-15.02-33.333-32.68-23.137C53.719 24.1 39.128 52.11 39.128 76.219c-.01 2.671.19 5.34.595 7.98l-2.253 1.295C25.972 92.14 16.65 109.953 16.65 125.292c0 15.338 9.322 22.722 20.82 16.076l30.27-17.54 80.649-46.573c6.888-3.99 12.481-14.678 12.481-23.889 0-9.146-5.593-13.369-12.481-9.392Z" stroke="#FFF" stroke-width="3" fill="url(#b)" transform="translate(95.655 64.329)"/>
        </g>
        <g fill-rule="nonzero">
            <path d="m190.351 125.99 3.955-6.848.264-2.075c-7.207-3.405-18.665 4.066-25.162 16.313-1.805 3.402-3.143 7.117-3.857 10.568l1.416-1.048 7.91-6.072.611-1.073c3.519-6.492 9.468-10.526 13.53-9.075l1.333-.69Z" fill="#EA4335"/>
            <path d="M199.94 123.964c-.908-3.34-2.775-5.737-5.37-6.897l-5.551 9.612c2.344.859 3.68 3.419 3.622 6.945v1.138c2.729-1.575 4.94-.299 4.94 2.851s-2.211 6.916-4.94 8.49l-9.895 5.712-.971 1.778v6.84l.971.513 9.895-5.711c7.097-4.032 12.895-13.905 12.95-22.13.034-4.984-2.087-8.415-5.65-9.14" fill="#4285F4"/>
            <path d="m172.865 166.65 9.881-5.704v-9.131l-9.88 5.703c-.705.406-1.387.625-2.027.657l-1.402 1.305-3.983 6.865-.347 1.754c2.234.658 4.96.18 7.758-1.45" fill="#34A853"/>
            <path d="M172.865 137.028c-7.097 4.146-12.816 14.128-12.774 22.296.024 4.561 1.875 7.8 5.016 8.775l5.732-9.924c-2.487.138-3.592-2.602-2.468-6.121 1.123-3.519 4.05-6.484 6.536-6.622 1.096-.061 1.973.446 2.469 1.425l5.731-9.925c-2.439-2.272-6.228-2.237-10.242.096" fill="#FBBC05"/>
        </g>
        <g>
            <g fill-rule="nonzero">
                <path d="M499.608 329.22a2.164 2.164 0 0 0-1.328-1.754 6.932 6.932 0 0 0-6.138 0 2.125 2.125 0 0 0-1.328 1.754v11.258a2.125 2.125 0 0 0 1.328 1.741c1.928.97 4.21.97 6.138 0 .73-.3 1.24-.966 1.328-1.74v-11.26Z" fill="#933CDD"/>
                <path d="M502.252 317.962a3.407 3.407 0 0 0-2.046-2.815 11.064 11.064 0 0 0-9.897 0 3.407 3.407 0 0 0-2.046 2.815v11.062c.007 1.31.8 2.49 2.02 3.01a11.145 11.145 0 0 0 9.897 0 3.298 3.298 0 0 0 2.019-3.01v-11.062h.053Z" fill="#410F6C"/>
                <g>
                    <path d="m562.213 256.598-.389-.22-.246-.13-8.545-4.949v-.609c0-10.545-3.547-17.942-9.14-21.051l-16.509-9.548c-4.544-2.591-10.46-2.384-16.935 1.295a38.703 38.703 0 0 0-8.156 6.478 18.011 18.011 0 0 0-3.574-2.837l-15.95-9.185c-5.84-3.887-13.66-3.796-22.27 1.166-18.126 10.441-32.718 38.45-32.718 62.559a51.37 51.37 0 0 0 .608 7.98l-2.24 1.438c-11.497 6.646-20.819 24.458-20.819 39.797 0 8.472 2.849 14.51 7.328 17.1l16.702 9.652c3.639 2.085 8.326 1.917 13.453-1.05l30.258-17.566 80.648-46.573c6.888-3.99 12.482-14.678 12.482-23.889 0-4.754-1.515-8.2-3.988-9.858Z" fill="#3C80B6"/>
                    <path d="m562.213 256.598-.389-.22-.246-.13-8.545-4.949v-.609c0-10.545-3.547-17.942-9.14-21.051l-16.509-9.548c-4.544-2.591-10.46-2.384-16.935 1.295a38.703 38.703 0 0 0-8.156 6.478 18.011 18.011 0 0 0-3.574-2.837l-15.95-9.185c-5.84-3.887-13.66-3.796-22.27 1.166-18.126 10.441-32.718 38.45-32.718 62.559a51.37 51.37 0 0 0 .608 7.98l-2.24 1.438c-11.497 6.646-20.819 24.458-20.819 39.797 0 8.472 2.849 14.51 7.328 17.1l16.702 9.652c3.639 2.085 8.326 1.917 13.453-1.05l30.258-17.566 80.648-46.573c6.888-3.99 12.482-14.678 12.482-23.889 0-4.754-1.515-8.2-3.988-9.858Z" fill="#FFF" opacity=".2"/>
                    <path d="M543.892 229.639c-4.505-2.527-10.358-2.229-16.754 1.464a38.846 38.846 0 0 0-8.57 6.892l-15.136-8.81-1.489-.855.376-.375a39.117 39.117 0 0 1 8.156-6.478c6.474-3.744 12.39-3.977 16.935-1.295l16.482 9.457Z" fill="#FFF" opacity=".2"/>
                    <path d="M502.306 227.955c.388.388.75.803 1.113 1.295l-1.489-.855.376-.44Z" fill="#FFF" opacity=".8"/>
                    <path d="M498.33 224.884c-5.696-3.174-13.076-2.81-21.155 1.853-8.08 4.664-15.692 13.097-21.428 23.06l-16.65-9.6c5.748-9.975 13.232-18.331 21.428-23.073 8.61-4.961 16.43-5.04 22.269-1.166l15.537 8.926ZM445.053 297.289l-2.253 1.295c-7.769 4.496-14.592 14.147-18.126 24.614l-16.65-9.6a50.527 50.527 0 0 1 13.555-21.323l6.85-4.638 16.624 9.652Z" fill="#FFF" opacity=".2"/>
                    <path d="m553.72 257.064-1.205.687c.334-2.339.503-4.698.505-7.06 0-19.083-11.588-27.854-25.894-19.588-6.63 3.886-12.689 10.661-17.272 18.784-.635-22.982-15.019-33.333-32.68-23.137-18.125 10.441-32.717 38.45-32.717 62.559-.009 2.671.19 5.34.596 7.98l-2.253 1.295c-11.497 6.646-20.82 24.459-20.82 39.797 0 15.339 9.323 22.723 20.82 16.077l30.27-17.54 80.65-46.573c6.887-3.99 12.48-14.678 12.48-23.889 0-9.146-5.593-13.37-12.48-9.392Z" fill="#FFF"/>
                    <path d="m148.389 43.974-1.204.687c.334-2.339.502-4.698.505-7.06 0-19.083-11.588-27.854-25.895-19.588-6.629 3.886-12.688 10.661-17.271 18.784-.635-22.982-15.02-33.333-32.68-23.137C53.719 24.1 39.128 52.11 39.128 76.219c-.01 2.671.19 5.34.595 7.98l-2.253 1.295C25.972 92.14 16.65 109.953 16.65 125.292c0 15.338 9.322 22.722 20.82 16.076l30.27-17.54 80.649-46.573c6.888-3.99 12.481-14.678 12.481-23.889 0-9.146-5.593-13.369-12.481-9.392Z" stroke="#FFF" stroke-width="3" fill="url(#b)" transform="translate(405.33 213.09)"/>
                </g>
            </g>
            <path d="M479.327 292.978c0 .709.067 1.246.183 1.6.106.276.234.565.4.855l.132.219c.083.105.116.24.116.374 0 .191-.1.44-.316.757l-1.046 1.409c-.15.201-.299.345-.432.422a.513.513 0 0 1-.498.019 2.56 2.56 0 0 1-.598-.556 7.724 7.724 0 0 1-.515-.834c-1.295 2.511-2.923 4.333-4.882 5.464-1.395.805-2.508.987-3.322.536-.813-.45-1.229-1.437-1.229-2.971 0-1.63.499-3.24 1.512-4.821 1.013-1.582 2.358-2.857 4.068-3.844a15.604 15.604 0 0 1 1.76-.863c.615-.259 1.246-.47 1.91-.68v-1.4c0-1.457-.265-2.32-.78-2.617-.531-.287-1.428-.057-2.707.68-.581.336-1.179.758-1.793 1.285a25.721 25.721 0 0 0-1.794 1.687l-.211.224-.176.177-.194.184-.152.13a.952.952 0 0 1-.114.08c-.233.135-.349.01-.349-.392v-.94c0-.306.033-.555.116-.738.084-.182.233-.402.465-.67.582-.681 1.28-1.371 2.093-2.071a15.892 15.892 0 0 1 2.59-1.86c1.977-1.14 3.422-1.457 4.352-.958.913.508 1.378 1.812 1.378 3.92v6.212l.033-.02Zm-6.742 6.805c.548-.316 1.113-.757 1.71-1.332.598-.575 1.13-1.304 1.578-2.138.266-.517.465-1.035.565-1.553.1-.517.166-1.112.166-1.763v-.805c-.482.143-.997.325-1.528.555a15.12 15.12 0 0 0-1.561.786c-1.113.643-1.927 1.362-2.475 2.196a4.751 4.751 0 0 0-.813 2.674c0 .9.199 1.457.614 1.677.399.25.98.144 1.744-.297Zm13.336-5.626c-.3.172-.499.23-.631.172-.133-.038-.25-.24-.35-.546l-3.937-12.684-.056-.206a1.595 1.595 0 0 1-.058-.357c0-.307.132-.556.398-.71l1.628-.939c.315-.182.531-.25.647-.182.133.038.233.249.333.556l2.79 11.08 2.59-14.186c.083-.431.183-.738.316-.93.133-.191.365-.402.664-.575l1.329-.767c.315-.182.531-.249.664-.191.116.033.22.192.288.449l2.652 11.446 2.873-14.503c.1-.44.215-.757.332-.939.133-.192.348-.393.647-.565l1.545-.892c.266-.153.415-.086.415.24l-.005.1-.028.226-.03.174c-.019.1-.047.222-.086.372l-4.003 17.13c-.1.44-.216.756-.349.948a1.968 1.968 0 0 1-.63.556l-1.429.824c-.315.182-.531.25-.664.192-.133-.057-.25-.24-.316-.585l-2.574-10.88-2.557 13.823c-.083.431-.183.738-.316.95-.133.21-.365.402-.664.574l-1.428.825Zm21.34-11.8c-.864.498-1.727.882-2.557 1.131-.83.25-1.479.374-1.91.335-.266-.019-.449-.105-.515-.24a1.109 1.109 0 0 1-.1-.478v-.978c0-.403.133-.671.382-.815.1-.057.2-.096.3-.115l.065-.01.35-.038a7.22 7.22 0 0 0 1.826-.383c.664-.23 1.312-.528 1.976-.91 1.047-.605 1.86-1.285 2.425-2.033.565-.748.864-1.534.864-2.32 0-.536-.15-.891-.449-1.083-.299-.192-.863-.192-1.677-.029l-2.408.528c-1.213.258-2.11.124-2.657-.422-.548-.527-.83-1.304-.83-2.3 0-.806.149-1.601.448-2.387.299-.786.697-1.553 1.195-2.263a11.586 11.586 0 0 1 1.728-1.993 11.604 11.604 0 0 1 2.092-1.534 10.136 10.136 0 0 1 1.665-.786l.527-.192c.332-.096.648-.182.947-.24.299-.057.531-.076.697-.057.233.02.399.077.499.192.1.096.15.278.15.546v.901c0 .403-.134.69-.383.834a1.198 1.198 0 0 1-.47.124l-.161.01c-.947.048-2.01.413-3.189 1.093-.946.546-1.694 1.15-2.208 1.812-.515.661-.78 1.37-.78 2.156 0 .537.165.901.497 1.074.332.173.947.182 1.827 0l2.358-.498c1.196-.25 2.06-.135 2.575.354.514.49.763 1.246.763 2.243a7.56 7.56 0 0 1-.431 2.473c-.3.825-.698 1.63-1.213 2.387a11.79 11.79 0 0 1-1.843 2.138 12.85 12.85 0 0 1-2.375 1.773Z" fill="#252F3E" fill-rule="nonzero"/>
            <g fill="#F90">
                <path d="M510.4 289.862c-5.464 7.812-13.402 14.867-20.228 18.807-9.566 5.521-18.185 6.412-24.695 3.383-.515-.24-.05-1.236.565-1.169 7.041.652 15.727-1.505 24.711-6.69 5.889-3.4 12.342-8.499 18.323-14.771l.527-.557c.913-1.006 1.694-.287.797.997Z"/>
                <path d="M512.675 285.558c-.21-.19-.708-.07-1.353.224l-.333.16a11.9 11.9 0 0 0-.175.091l-.362.198-.187.106-.382.227-.41.253-.416.265-.415.272-.41.276-.399.273-.57.398-.982.699c-.531.383-.614-.106-.133-.786 1.561-2.167 3.625-3.808 5.373-4.846l.413-.237.201-.11.39-.202.372-.179c.12-.055.238-.107.35-.154l.328-.13c.735-.275 1.258-.35 1.425-.21.152.132.216.642.179 1.404l-.027.402c-.012.14-.027.287-.045.44l-.05.398-.065.42c-.386 2.371-1.358 5.677-3.08 8.343-.45.7-.881.719-.682.028l.29-1.002.196-.697.135-.493.27-1.024.131-.52.124-.518.163-.734.09-.44.076-.422.034-.202.055-.386c.104-.804.091-1.4-.119-1.585Z"/>
            </g>
        </g>
        <g fill-rule="nonzero">
            <path d="M344.77 254.84a2.164 2.164 0 0 0-1.328-1.755 6.932 6.932 0 0 0-6.137 0 2.125 2.125 0 0 0-1.329 1.754v11.259a2.125 2.125 0 0 0 1.329 1.74c1.927.97 4.21.97 6.137 0 .731-.299 1.24-.965 1.329-1.74v-11.259Z" fill="#933CDD"/>
            <path d="M347.415 243.581a3.407 3.407 0 0 0-2.046-2.814 11.064 11.064 0 0 0-9.897 0 3.407 3.407 0 0 0-2.046 2.814v11.062c.007 1.31.8 2.491 2.02 3.011a11.145 11.145 0 0 0 9.896 0 3.298 3.298 0 0 0 2.02-3.01V243.58h.053Z" fill="#410F6C"/>
            <g>
                <path d="m407.375 182.217-.388-.22-.246-.13-8.545-4.948v-.61c0-10.544-3.548-17.942-9.141-21.05l-16.508-9.548c-4.545-2.591-10.461-2.384-16.935 1.295a38.703 38.703 0 0 0-8.157 6.477 18.011 18.011 0 0 0-3.573-2.837l-15.951-9.185c-5.84-3.886-13.66-3.795-22.27 1.166-18.126 10.442-32.718 38.45-32.718 62.56a51.37 51.37 0 0 0 .609 7.98l-2.24 1.437c-11.497 6.646-20.82 24.459-20.82 39.797 0 8.473 2.85 14.51 7.329 17.1l16.702 9.652c3.638 2.086 8.325 1.918 13.452-1.05l30.258-17.566 80.649-46.572c6.888-3.99 12.48-14.678 12.48-23.89 0-4.754-1.514-8.2-3.987-9.858Z" fill="#3C80B6"/>
                <path d="m407.375 182.217-.388-.22-.246-.13-8.545-4.948v-.61c0-10.544-3.548-17.942-9.141-21.05l-16.508-9.548c-4.545-2.591-10.461-2.384-16.935 1.295a38.703 38.703 0 0 0-8.157 6.477 18.011 18.011 0 0 0-3.573-2.837l-15.951-9.185c-5.84-3.886-13.66-3.795-22.27 1.166-18.126 10.442-32.718 38.45-32.718 62.56a51.37 51.37 0 0 0 .609 7.98l-2.24 1.437c-11.497 6.646-20.82 24.459-20.82 39.797 0 8.473 2.85 14.51 7.329 17.1l16.702 9.652c3.638 2.086 8.325 1.918 13.452-1.05l30.258-17.566 80.649-46.572c6.888-3.99 12.48-14.678 12.48-23.89 0-4.754-1.514-8.2-3.987-9.858Z" fill="#FFF" opacity=".2"/>
                <path d="M389.055 155.258c-4.506-2.526-10.358-2.228-16.754 1.464a38.846 38.846 0 0 0-8.571 6.892l-15.136-8.81-1.489-.854.376-.376a39.117 39.117 0 0 1 8.157-6.477c6.473-3.744 12.39-3.977 16.935-1.296l16.482 9.457Z" fill="#FFF" opacity=".2"/>
                <path d="M347.468 153.574c.388.389.751.803 1.113 1.296l-1.488-.855.375-.44Z" fill="#FFF" opacity=".8"/>
                <path d="M343.493 150.504c-5.697-3.174-13.077-2.811-21.156 1.852-8.079 4.664-15.692 13.098-21.427 23.06l-16.65-9.6c5.748-9.975 13.231-18.33 21.427-23.072 8.61-4.962 16.43-5.04 22.27-1.166l15.536 8.926ZM290.215 222.908l-2.253 1.296c-7.768 4.495-14.591 14.146-18.126 24.614l-16.65-9.6a50.527 50.527 0 0 1 13.556-21.323l6.849-4.638 16.624 9.651Z" fill="#FFF" opacity=".2"/>
                <path d="m398.882 182.684-1.204.686c.333-2.338.502-4.698.505-7.06 0-19.083-11.588-27.853-25.895-19.588-6.629 3.887-12.688 10.662-17.272 18.785-.634-22.982-15.019-33.333-32.679-23.138-18.126 10.442-32.718 38.45-32.718 62.56-.009 2.67.19 5.339.596 7.98l-2.253 1.295c-11.497 6.646-20.819 24.459-20.819 39.797 0 15.339 9.322 22.723 20.82 16.077l30.27-17.54 80.649-46.573c6.888-3.99 12.48-14.678 12.48-23.89 0-9.145-5.592-13.369-12.48-9.391Z" fill="#FFF"/>
                <path d="m148.389 43.974-1.204.687c.334-2.339.502-4.698.505-7.06 0-19.083-11.588-27.854-25.895-19.588-6.629 3.886-12.688 10.661-17.271 18.784-.635-22.982-15.02-33.333-32.68-23.137C53.719 24.1 39.128 52.11 39.128 76.219c-.01 2.671.19 5.34.595 7.98l-2.253 1.295C25.972 92.14 16.65 109.953 16.65 125.292c0 15.338 9.322 22.722 20.82 16.076l30.27-17.54 80.649-46.573c6.888-3.99 12.481-14.678 12.481-23.889 0-9.146-5.593-13.369-12.481-9.392Z" stroke="#FFF" stroke-width="3" fill="url(#b)" transform="translate(250.493 138.71)"/>
                <path d="m297.748 213.09 76.413-44.226v44.226l-76.413 44.226z"/>
                <path d="m13.61 8.042 12.08-6.909-12.54 49.67c-.265 1.047-.999 2.07-1.825 2.543l-9.402 5.377c-.62.354-1.2.345-1.562-.024-.361-.368-.458-1.052-.26-1.837l11.684-46.278c.246-.977.902-1.934 1.66-2.441l.165-.101Z" fill="url(#c)" transform="translate(316.045 187.21)"/>
                <path d="m347.21 213.717-19.157 10.956c-.364.207-.692.65-.826 1.114-.133.464-.046.856.22.988l12.31 6.101c.358.178.83.12 1.32-.16l10.848-6.203-4.716-12.796Z" fill="#0078D4"/>
                <path d="M13.61 8.042c-.837.474-1.578 1.517-1.83 2.574L.115 56.818c-.211.795-.122 1.493.239 1.872.36.378.948.39 1.574.03l9.645-5.516c.73-.567 1.335-1.501 1.582-2.444l2.326-9.171 8.31 4.112c.347.13.784.063 1.236-.191l10.807-6.18-4.74-12.782-13.817 7.905 8.457-33.345L13.61 8.042Z" fill="url(#d)" transform="translate(316.045 187.21)"/>
                <path d="M29.04.714c-.265-.744-.998-.926-1.823-.454l-13.463 7.7c.825-.473 1.558-.29 1.822.454L27.26 41.329c.198.558.101 1.353-.26 2.136-.361.782-.943 1.456-1.562 1.81l13.463-7.7c.62-.354 1.201-1.028 1.563-1.81.36-.783.458-1.577.26-2.135L29.038.714Z" fill="url(#e)" transform="translate(316.045 187.21)"/>
            </g>
        </g>
        <path d="M269.33 373.8a4.069 4.069 0 0 1-2.024-.526c-1.718-.982-2.706-3.209-2.706-6.116 0-5.305 3.294-11.498 7.349-13.81l.565-.317a17.438 17.438 0 0 1-.173-2.52c0-8.282 5.13-17.94 11.443-21.535 2.792-1.585 5.49-1.81 7.655-.627 2.275 1.253 3.726 3.998 4.07 7.617a16.646 16.646 0 0 1 5.491-5.513c2.259-1.284 4.463-1.446 6.196-.464 2.07 1.183 3.263 3.866 3.263 7.415 0 .584-.032 1.167-.094 1.747a3.057 3.057 0 0 1 2.964-.108c1.06.603 1.671 1.964 1.671 3.735 0 3.224-2.016 6.959-4.486 8.405l-38.189 21.743a6.12 6.12 0 0 1-2.996.874Z" stroke="#3C80B6" stroke-width="1.5" fill="#FFF" fill-rule="nonzero" opacity=".45"/>
        <path d="M316.385 102.9a6.576 6.576 0 0 1-3.288-.86c-2.791-1.607-4.397-5.252-4.397-10.009 0-8.68 5.353-18.815 11.942-22.598l.918-.519a28.73 28.73 0 0 1-.28-4.125c0-13.55 8.335-29.354 18.595-35.238 4.537-2.594 8.921-2.96 12.439-1.025 3.696 2.05 6.054 6.542 6.614 12.463a27.146 27.146 0 0 1 8.922-9.021c3.67-2.1 7.252-2.366 10.069-.76 3.364 1.937 5.302 6.327 5.302 12.135a27.41 27.41 0 0 1-.153 2.86 4.938 4.938 0 0 1 4.817-.178c1.72.987 2.715 3.214 2.715 6.112 0 5.276-3.275 11.387-7.29 13.753l-62.056 35.58a9.893 9.893 0 0 1-4.869 1.43Z" stroke="#3C80B6" stroke-width="2" fill="#FFF" fill-rule="nonzero"/>
    </g>
</svg>
